<svg width="2925" height="816" viewBox="0 0 2925 816" fill="none" xmlns="http://www.w3.org/2000/svg">
<path d="M117.508 414.605V339.605H459.508V414.605H117.508ZM5.50781 463.105L220.008 143.105H359.008L575.508 463.105H438.008L252.508 176.605H327.008L143.008 463.105H5.50781ZM582.949 345.605H719.449C721.783 352.605 728.616 358.605 739.949 363.605C751.283 368.272 766.449 371.939 785.449 374.605C804.783 376.939 827.116 378.105 852.449 378.105C877.449 378.105 897.116 377.439 911.449 376.105C926.116 374.439 936.449 371.772 942.449 368.105C948.449 364.105 951.449 358.772 951.449 352.105C951.449 345.772 946.616 340.939 936.949 337.605C927.283 333.939 910.116 331.439 885.449 330.105C860.783 328.772 826.116 328.105 781.449 328.105C748.116 328.105 719.283 326.605 694.949 323.605C670.949 320.272 651.116 315.272 635.449 308.605C620.116 301.605 608.783 292.939 601.449 282.605C594.116 271.939 590.449 259.272 590.449 244.605C590.449 219.272 598.949 198.439 615.949 182.105C633.283 165.439 659.283 153.105 693.949 145.105C728.949 136.772 772.616 132.605 824.949 132.605C901.616 132.605 960.116 143.772 1000.45 166.105C1041.12 188.105 1061.45 219.939 1061.45 261.605H931.949C930.283 250.605 919.949 242.272 900.949 236.605C881.949 230.605 854.949 227.605 819.949 227.605C785.283 227.605 759.449 229.605 742.449 233.605C725.783 237.605 717.449 244.439 717.449 254.105C717.449 259.105 719.783 263.105 724.449 266.105C729.116 269.105 737.116 271.605 748.449 273.605C760.116 275.272 776.449 276.439 797.449 277.105C818.449 277.772 845.116 278.105 877.449 278.105C913.116 278.105 943.449 279.939 968.449 283.605C993.449 286.939 1013.62 292.105 1028.95 299.105C1044.62 306.105 1055.95 315.105 1062.95 326.105C1069.95 336.772 1073.45 349.439 1073.45 364.105C1073.45 389.439 1065.45 410.105 1049.45 426.105C1033.45 442.105 1008.12 453.939 973.449 461.605C938.783 469.272 893.449 473.105 837.449 473.105C805.783 473.105 776.616 471.272 749.949 467.605C723.616 463.939 700.116 458.605 679.449 451.605C658.783 444.272 641.283 435.439 626.949 425.105C612.616 414.439 601.616 402.605 593.949 389.605C586.616 376.272 582.949 361.605 582.949 345.605ZM1108.28 143.105H1628.28V238.105H1108.28V143.105ZM1305.78 231.605H1430.78V463.105H1305.78V231.605ZM1678.09 463.105V143.105H2064.59C2094.92 143.105 2122.09 146.605 2146.09 153.605C2170.42 160.272 2189.59 171.605 2203.59 187.605C2217.92 203.605 2225.09 225.439 2225.09 253.105C2225.09 271.439 2221.75 286.605 2215.09 298.605C2208.42 310.605 2199.25 319.939 2187.59 326.605C2175.92 333.272 2162.59 338.105 2147.59 341.105C2132.59 344.105 2116.92 345.939 2100.59 346.605L2064.09 339.605C2103.75 339.939 2134.25 341.605 2155.59 344.605C2177.25 347.605 2192.25 353.105 2200.59 361.105C2209.25 368.772 2213.59 379.939 2213.59 394.605V463.105H2088.59V409.605C2088.59 399.605 2086.59 392.105 2082.59 387.105C2078.92 381.772 2070.59 378.105 2057.59 376.105C2044.92 374.105 2025.25 373.105 1998.59 373.105H1803.09V463.105H1678.09ZM1803.09 289.605H2064.59C2074.59 289.605 2082.92 287.939 2089.59 284.605C2096.59 281.272 2100.09 274.939 2100.09 265.605C2100.09 256.939 2096.59 251.105 2089.59 248.105C2082.92 244.772 2074.59 243.105 2064.59 243.105H1803.09V289.605ZM2591.8 473.105C2519.13 473.105 2460.63 466.772 2416.3 454.105C2371.96 441.105 2339.63 422.105 2319.3 397.105C2299.3 371.772 2289.3 340.439 2289.3 303.105C2289.3 265.772 2299.3 234.605 2319.3 209.605C2339.63 184.272 2371.96 165.272 2416.3 152.605C2460.63 139.605 2519.13 133.105 2591.8 133.105C2664.46 133.105 2722.96 139.605 2767.3 152.605C2811.63 165.272 2843.8 184.272 2863.8 209.605C2884.13 234.605 2894.3 265.772 2894.3 303.105C2894.3 340.439 2884.13 371.772 2863.8 397.105C2843.8 422.105 2811.63 441.105 2767.3 454.105C2722.96 466.772 2664.46 473.105 2591.8 473.105ZM2591.8 378.105C2626.13 378.105 2655.8 376.105 2680.8 372.105C2705.8 367.772 2725.13 360.272 2738.8 349.605C2752.46 338.605 2759.3 323.105 2759.3 303.105C2759.3 283.105 2752.46 267.772 2738.8 257.105C2725.13 246.105 2705.8 238.605 2680.8 234.605C2655.8 230.272 2626.13 228.105 2591.8 228.105C2557.46 228.105 2527.3 230.272 2501.3 234.605C2475.63 238.605 2455.46 246.105 2440.8 257.105C2426.46 267.772 2419.3 283.105 2419.3 303.105C2419.3 323.105 2426.46 338.605 2440.8 349.605C2455.46 360.272 2475.63 367.772 2501.3 372.105C2527.3 376.105 2557.46 378.105 2591.8 378.105Z" fill="white"/>
<path d="M943.348 766.105V649.594H989.235C1001.3 649.594 1010.69 652.342 1017.38 657.839C1024.19 663.336 1027.59 670.984 1027.59 680.783C1027.59 686.877 1026.34 691.837 1023.83 695.661C1021.44 699.485 1018.03 702.353 1013.61 704.265C1009.19 706.177 1003.99 707.431 998.019 708.029L998.377 706.953C1002.8 707.192 1006.98 707.79 1010.92 708.746C1014.87 709.582 1018.33 710.957 1021.32 712.869C1024.43 714.781 1026.88 717.41 1028.67 720.756C1030.46 724.101 1031.36 728.403 1031.36 733.661C1031.36 740.712 1029.81 746.567 1026.7 751.228C1023.59 755.888 1019.23 759.473 1013.61 761.983C1008.12 764.373 1001.78 765.747 994.613 766.105H943.348ZM957.688 752.662H991.028C999.154 752.662 1005.49 751.168 1010.03 748.181C1014.69 745.074 1017.02 740.234 1017.02 733.661C1017.02 728.403 1015.53 724.46 1012.54 721.831C1009.67 719.202 1005.97 717.469 1001.42 716.633C996.883 715.677 992.223 715.199 987.443 715.199H957.688V752.662ZM957.688 701.755H987.443C995.569 701.755 1001.9 700.022 1006.44 696.557C1011.1 692.972 1013.43 687.893 1013.43 681.321C1013.43 674.868 1011.1 670.207 1006.44 667.339C1001.9 664.471 996.166 663.037 989.235 663.037H957.688V701.755ZM1173.09 649.594L1131.86 726.133V766.105H1117.52V726.133L1076.29 649.594H1092.43L1127.92 716.812H1122.18L1156.95 649.594H1173.09ZM1333.3 766.105L1290.46 649.594H1305.88L1342.98 751.766H1338.68L1375.78 649.594H1390.84L1348.36 766.105H1333.3ZM1531.48 649.594L1490.25 726.133V766.105H1475.91V726.133L1434.69 649.594H1450.82L1486.31 716.812H1480.57L1515.35 649.594H1531.48ZM1599.21 701.217H1673.06V714.661H1599.21V701.217ZM1672.16 649.594H1686.5V766.105H1672.16V649.594ZM1586.12 649.594H1600.46V766.105H1586.12V649.594ZM1765.32 714.84V752.662H1833.62V766.105H1750.98V649.594H1833.44V663.037H1765.32V701.397H1821.07V714.84H1765.32ZM1894.49 766.105V649.594H1945.93C1954.06 649.594 1960.99 650.848 1966.72 653.358C1972.46 655.748 1976.82 659.393 1979.81 664.292C1982.92 669.192 1984.47 675.346 1984.47 682.755C1984.47 687.774 1983.63 692.076 1981.96 695.661C1980.41 699.246 1978.2 702.293 1975.33 704.802C1972.46 707.192 1969.05 709.045 1965.11 710.359C1961.29 711.674 1957.1 712.51 1952.56 712.869L1952.03 711.972C1958.36 712.211 1963.8 712.988 1968.34 714.303C1972.88 715.617 1976.4 718.007 1978.91 721.473C1981.42 724.938 1982.68 730.136 1982.68 737.067V766.105H1968.34V737.067C1968.34 732.287 1967.5 728.583 1965.83 725.954C1964.27 723.205 1961.59 721.293 1957.76 720.218C1954.06 719.023 1948.92 718.425 1942.35 718.425H1908.83V766.105H1894.49ZM1908.83 704.982H1945.93C1954.06 704.982 1960.09 702.95 1964.04 698.887C1968.1 694.705 1970.13 689.327 1970.13 682.755C1970.13 676.421 1968.1 671.582 1964.04 668.236C1960.09 664.77 1954.06 663.037 1945.93 663.037H1908.83V704.982Z" fill="white"/>
</svg>
